<?xml version="1.0" encoding="UTF-8"?>
<svg version="1.1" xmlns="http://www.w3.org/2000/svg" width="183" height="192">
<path d="M0 0 C60.39 0 120.78 0 183 0 C183 63.36 183 126.72 183 192 C122.61 192 62.22 192 0 192 C0 128.64 0 65.28 0 0 Z " fill="#8AB716" transform="translate(0,0)"/>
<path d="M0 0 C60.39 0 120.78 0 183 0 C183 63.36 183 126.72 183 192 C122.61 192 62.22 192 0 192 C0 188.7 0 185.4 0 182 C16.17 182 32.34 182 49 182 C48.93039063 177.43027344 48.86078125 172.86054688 48.7890625 168.15234375 C48.75829428 165.20372285 48.72940448 162.25530842 48.70703125 159.30664062 C48.67158456 154.65752506 48.63033737 150.00913792 48.54736328 145.3605957 C47.88749155 107.39215667 47.88749155 107.39215667 55 92 C55.66 91.67 56.32 91.34 57 91 C57.72693904 89.02111039 58.39816251 87.02045442 59 85 C59.66 85 60.32 85 61 85 C61.2475 84.278125 61.495 83.55625 61.75 82.8125 C64.58793959 76.42713592 69.76504436 72.4011623 75 68 C75.804375 67.29875 76.60875 66.5975 77.4375 65.875 C84.7320347 60.53753558 92.39473839 57.69112937 100.9375 55.015625 C103.84347221 54.30605538 103.84347221 54.30605538 105 53 C110.31788344 52.20231748 115.45071617 51.94883229 120.828125 51.97265625 C122.56690918 51.97857788 122.56690918 51.97857788 124.34082031 51.98461914 C125.21834961 51.98969482 126.09587891 51.99477051 127 52 C127.17912491 59.14886526 127.30075142 66.29714144 127.38452148 73.44775391 C127.41948255 75.87440616 127.4670692 78.30091361 127.52807617 80.72705078 C127.93978623 97.53450835 127.76659052 109.72875614 116 122.625 C103.03482411 134.29614682 89.76241123 133 72 133 C72 149.17 72 165.34 72 182 C93.42060435 181.42463734 93.42060435 181.42463734 114.15234375 177.7421875 C115.82110752 177.30725593 117.49911995 176.90213334 119.19140625 176.5703125 C128.9683953 174.63466618 136.75070587 167.83550012 144.43359375 161.85546875 C147 160 147 160 150 159 C150 158.34 150 157.68 150 157 C152.24151641 154.6339549 154.56659424 152.39728861 156.96875 150.1953125 C159.26240939 147.71639601 160.68506476 145.23760364 162.25 142.25 C162.77078125 141.26515625 163.2915625 140.2803125 163.828125 139.265625 C164.21484375 138.51796875 164.6015625 137.7703125 165 137 C165.66 137 166.32 137 167 137 C169.10687759 132.13797478 170.52085957 127.07838213 172 122 C172.66 122 173.32 122 174 122 C175.56878665 114.57713871 176.30181132 107.50774198 176.31884766 99.92895508 C176.32889328 98.88371674 176.3389389 97.83847839 176.34928894 96.76156616 C176.37988638 93.34755952 176.39709039 89.93363042 176.4140625 86.51953125 C176.43279303 84.13627974 176.45236782 81.75303473 176.4727478 79.36979675 C176.52387581 73.12775521 176.56360463 66.88569221 176.60089111 60.64355469 C176.64105244 54.26166562 176.69208924 47.87986431 176.7421875 41.49804688 C176.83871771 28.99875974 176.92319525 16.49942283 177 4 C168.41001134 4.06172491 159.8203588 4.13918805 151.23069763 4.23571491 C147.24040824 4.2800835 143.25021314 4.31940894 139.25976562 4.34643555 C135.3951137 4.37280866 131.53083147 4.41343809 127.66641235 4.46318626 C126.20599026 4.47962893 124.74550458 4.49128156 123.28500366 4.49761391 C114.10763008 4.54135458 105.54593397 5.3999318 96.55688477 7.29460144 C91.72851049 8.25216079 86.90791792 8.6984542 82 9 C82 9.66 82 10.32 82 11 C80.88625 11.4125 79.7725 11.825 78.625 12.25 C77.53251953 12.66378906 77.53251953 12.66378906 76.41796875 13.0859375 C74.77861442 13.70566111 73.13519568 14.31471883 71.48828125 14.9140625 C65.99696057 16.9827683 61.6406532 19.44847969 57 23 C52.34482759 26 52.34482759 26 50 26 C49.505 27.485 49.505 27.485 49 29 C45.9375 30.1875 45.9375 30.1875 43 31 C43 31.66 43 32.32 43 33 C41.49609375 34.4453125 41.49609375 34.4453125 39.4375 36.125 C35.68243387 39.29312862 32.54734343 42.69430236 29.4453125 46.49609375 C28.96835937 46.99238281 28.49140625 47.48867188 28 48 C27.34 48 26.68 48 26 48 C25.773125 48.70125 25.54625 49.4025 25.3125 50.125 C24 53 24 53 21.75 55.5625 C13.59496423 64.87564736 9.74012383 78.43789132 6 90 C5.34 90 4.68 90 4 90 C3.34 95.61 2.68 101.22 2 107 C1.34 107 0.68 107 0 107 C0 71.69 0 36.38 0 0 Z " fill="#E4E5E2" transform="translate(0,0)"/>
<path d="M0 0 C22.44 0 44.88 0 68 0 C68.04010881 26.42279228 68.04010881 26.42279228 68.04882812 37.69335938 C68.05480384 45.38111054 68.06187026 53.06884979 68.07543945 60.7565918 C68.08631167 66.95519072 68.09228605 73.15377685 68.09487724 79.35238457 C68.09672367 81.71623371 68.10032925 84.08008216 68.10573006 86.44392586 C68.11299795 89.75698479 68.11398851 93.06999101 68.11352539 96.38305664 C68.11712067 97.35841873 68.12071594 98.33378082 68.12442017 99.33869934 C68.10296553 113.54025486 68.10296553 113.54025486 64 118 C63.95745644 116.00045254 63.95919217 113.99958364 64 112 C64.33 111.67 64.66 111.34 65 111 C66.08182027 105.24932176 66.16949422 99.5890868 66.20532227 93.75024414 C66.21522186 92.74460419 66.22512146 91.73896423 66.23532104 90.70285034 C66.26677043 87.39697581 66.2916277 84.09108694 66.31640625 80.78515625 C66.33699009 78.48587177 66.35798693 76.18659095 66.37937927 73.88731384 C66.43445224 67.8490598 66.48392646 61.81077245 66.53222656 55.77246094 C66.59140462 48.52028527 66.65755099 41.26817021 66.72252655 34.01604462 C66.82035005 23.01073357 66.90933339 12.00538282 67 1 C44.89 1 22.78 1 0 1 C0 0.67 0 0.34 0 0 Z " fill="#B6CA60" transform="translate(109,4)"/>
<path d="M0 0 C-0.33 0.33 -0.66 0.66 -1 1 C-8.59 1 -16.18 1 -24 1 C-24 16.18 -24 31.36 -24 47 C-16.74 47.33 -9.48 47.66 -2 48 C-2 48.33 -2 48.66 -2 49 C-9.92 49 -17.84 49 -26 49 C-26 32.83 -26 16.66 -26 0 C-2 -1 -2 -1 0 0 Z " fill="#90BB3E" transform="translate(98,133)"/>
<path d="M0 0 C0.33 0 0.66 0 1 0 C1.25224551 14.37799401 1.25224551 14.37799401 -3 19 C-3.04254356 17.00045254 -3.04080783 14.99958364 -3 13 C-2.67 12.67 -2.34 12.34 -2 12 C-1.60430892 9.98688551 -1.25747809 7.96402792 -0.9375 5.9375 C-0.67259766 4.28041016 -0.67259766 4.28041016 -0.40234375 2.58984375 C-0.26957031 1.73519531 -0.13679687 0.88054687 0 0 Z " fill="#C5D393" transform="translate(176,103)"/>
<path d="M0 0 C1.66285211 3.32570422 -0.01920148 6.68360945 -0.9375 10.125 C-1.13279297 10.87910156 -1.32808594 11.63320312 -1.52929688 12.41015625 C-2.01323358 14.27508306 -2.50580769 16.13776459 -3 18 C-3.33 18 -3.66 18 -4 18 C-4 14.7 -4 11.4 -4 8 C-3.34 8 -2.68 8 -2 8 C-1.855625 6.865625 -1.71125 5.73125 -1.5625 4.5625 C-1 1 -1 1 0 0 Z " fill="#ADC770" transform="translate(53,97)"/>
<path d="M0 0 C0.33 0.66 0.66 1.32 1 2 C-0.73397418 5.65047197 -2.19333016 7.55609075 -6 9 C-4.68775452 5.06326356 -3.08089673 2.77280706 0 0 Z " fill="#9DBD46" transform="translate(30,44)"/>
<path d="M0 0 C0.33 0.99 0.66 1.98 1 3 C-0.32 4.32 -1.64 5.64 -3 7 C-3.99 6.67 -4.98 6.34 -6 6 C-4.02 4.02 -2.04 2.04 0 0 Z " fill="#9FC242" transform="translate(41,33)"/>
</svg>
